<?xml version="1.0" encoding="UTF-8"?>
<svg width="38px" height="39px" viewBox="0 0 38 39" version="1.1" xmlns="http://www.w3.org/2000/svg" xmlns:xlink="http://www.w3.org/1999/xlink">
    <!-- Generator: Sketch 47.1 (45422) - http://www.bohemiancoding.com/sketch -->
    <title>ic_sbi_faq</title>
    <desc>Created with Sketch.</desc>
    <defs></defs>
    <g id="Page-2" stroke="none" stroke-width="1" fill="none" fill-rule="evenodd">
        <g id="Group-36">
            <path d="M6.27225131,30.5221143 C4.84397906,28.9169364 4,26.9104639 4,24.7033441 C4,21.5264293 5.78534031,18.6839266 8.51204188,17.0118662 C9.9078534,22.9978425 15.7183246,27.5124056 22.6324607,27.5124056 C23.1193717,27.5124056 23.6062827,27.4789644 24.060733,27.4455232 C22.7623037,31.2243797 18.8670157,34 14.2251309,34 C12.1801047,34 10.2649215,33.4649407 8.64188482,32.4951456 C7.18115183,33.3980583 5.62303665,33.364617 4.71413613,33.2308522 C4.45445026,33.197411 4.3895288,32.8629989 4.61675393,32.6957929 C5.52565445,32.0938511 6.01256545,31.2578209 6.27225131,30.5221143 Z" id="Shape" fill="#280074" fill-rule="nonzero"></path>
            <path d="M22.6324607,3 C29.4492147,3 35,7.98274002 35,14.1359223 C35,16.811219 33.9612565,19.2524272 32.2408377,21.1585761 C32.565445,22.0614887 33.1172775,23.0647249 34.1884817,23.7669903 C34.4481675,23.9341963 34.3832461,24.368932 34.0586387,24.4023732 C32.9874346,24.5695793 31.104712,24.6030205 29.3518325,23.5329018 C27.4041885,24.6699029 25.0994764,25.3387271 22.6324607,25.3387271 C15.8157068,25.3387271 10.2973822,20.3559871 10.2973822,14.1693635 C10.2973822,7.98274002 15.8157068,3 22.6324607,3 Z M25.4565445,13.7011866 C25.7811518,13.2330097 25.9434555,12.6979504 25.9434555,12.1294498 C25.9434555,11.193096 25.6188482,10.4573894 25.034555,9.9223301 C24.4502618,9.38727077 23.6062827,9.1197411 22.5675393,9.1197411 C21.5937173,9.1197411 20.782199,9.35382956 20.1979058,9.82200647 C19.678534,10.2567422 19.3863874,10.8586839 19.321466,11.6278317 C19.2890052,11.7950378 19.4513089,11.9622438 19.6136126,11.9622438 L21.0418848,11.995685 C21.2691099,11.995685 21.4638743,11.8619202 21.5287958,11.6278317 C21.5937173,11.4271845 21.6586387,11.2599784 21.7884817,11.1596548 C21.9832461,10.9924488 22.2429319,10.8921251 22.5350785,10.8921251 C22.8921466,10.8921251 23.1842932,10.9924488 23.3790576,11.2265372 C23.573822,11.4606257 23.6712042,11.7615965 23.6712042,12.1294498 C23.6712042,12.4973031 23.573822,12.8317152 23.4115183,13.0992449 C23.2492147,13.3667745 23.0219895,13.600863 22.7298429,13.8015102 C22.1780105,14.236246 21.7884817,14.6040992 21.5612565,14.9050701 C21.3664921,15.1391586 21.2691099,15.5070119 21.2366492,15.9417476 C21.2366492,16.1423948 21.3989529,16.3096009 21.5937173,16.3096009 L23.1193717,16.3096009 C23.3141361,16.3096009 23.4764398,16.175836 23.4764398,16.00863 C23.4764398,15.7745415 23.5413613,15.6073355 23.6062827,15.4401294 C23.7036649,15.2394822 23.8984293,15.038835 24.1905759,14.8381877 C24.7099476,14.5372168 25.1319372,14.1693635 25.4565445,13.7011866 Z M23.4764398,18.6504854 C23.4764398,18.9180151 23.2492147,19.1521036 22.9895288,19.1521036 L21.7560209,19.1521036 C21.4963351,19.1521036 21.2691099,18.9180151 21.2691099,18.6504854 L21.2691099,17.8144552 C21.2691099,17.5469256 21.4963351,17.3128371 21.7560209,17.3128371 L22.9895288,17.3128371 C23.2492147,17.3128371 23.4764398,17.5469256 23.4764398,17.8144552 L23.4764398,18.6504854 Z" id="Combined-Shape" fill="#00A7E6"></path>
        </g>
    </g>
</svg>