<?xml version="1.0" encoding="UTF-8"?>
<svg width="38px" height="39px" viewBox="0 0 38 39" version="1.1" xmlns="http://www.w3.org/2000/svg" xmlns:xlink="http://www.w3.org/1999/xlink">
    <!-- Generator: Sketch 47.1 (45422) - http://www.bohemiancoding.com/sketch -->
    <title>ic_sbi_feedback</title>
    <desc>Created with Sketch.</desc>
    <defs></defs>
    <g id="Page-2" stroke="none" stroke-width="1" fill="none" fill-rule="evenodd">
        <g id="Group-23" fill-rule="nonzero">
            <path d="M34.5826087,17.602381 C34.7217391,16.6357143 34.3043478,15.6690476 33.5391304,15.047619 L33.4,14.9785714 C33.3304348,14.9785714 33.3304348,14.9095238 33.3304348,14.9095238 L33.2608696,14.8404762 C33.2608696,14.8404762 33.1913043,14.8404762 33.1913043,14.7714286 L33.0521739,14.702381 C32.9826087,14.702381 32.9130435,14.6333333 32.8434783,14.6333333 C31.5217391,14.2190476 30.1304348,14.4261905 28.8086957,14.4952381 C28.4608696,14.4952381 25.6782609,14.4952381 25.6086957,14.7714286 L26.026087,13.3214286 C26.2347826,12.5619048 26.5130435,11.7333333 26.7217391,10.9047619 C27.0695652,9.73095238 27.2086957,8.83333333 27.0695652,7.93571429 C26.9304348,6.76190476 26.3043478,5.72619048 25.2608696,5.1047619 C24.7043478,4.75952381 24.0782609,4.55238095 23.4521739,4.55238095 C23.3826087,4.55238095 23.3826087,4.55238095 23.3130435,4.55238095 C22.6869565,4.55238095 22.3391304,4.89761905 22.2695652,5.51904762 C22.2,6.27857143 22.1304348,6.96904762 21.9913043,7.65952381 C21.7826087,8.83333333 21.5043478,9.8 21.0173913,10.6285714 C20.7391304,11.1119048 20.4608696,11.5261905 20.0434783,11.9404762 C19.5565217,12.4928571 19,13.0452381 18.4434783,13.6666667 L17.1217391,15.1857143 C16.8434783,15.5309524 16.4956522,15.8761905 16.1478261,16.2214286 C16.0782609,16.2904762 16.0086957,16.3595238 15.8695652,16.4285714 C15.6608696,16.6357143 15.3826087,16.7738095 15.1043478,16.9119048 C14.9652174,16.9809524 14.7565217,17.05 14.4086957,17.1190476 C13.2956522,17.4642857 12.6,17.7404762 12.6,18.4309524 C12.6,18.7761905 12.5304348,19.1214286 12.5304348,19.397619 L12.5304348,19.6047619 C12.5304348,19.8809524 12.5304348,20.1571429 12.5304348,20.4333333 L12.5304348,30.8595238 L14.2695652,30.8595238 L14.3391304,30.8595238 C14.9652174,30.9285714 15.5913043,31.0666667 16.3565217,31.2047619 L16.7043478,31.2738095 C18.3043478,31.55 19.7652174,31.7571429 21.226087,31.9642857 C24.8434783,32.3785714 29.1565217,33.4142857 31.8,30.1690476 C32.8434783,28.8571429 32.9826087,26.9928571 33.1913043,25.3357143 C33.7478261,22.85 34.2347826,20.2261905 34.5826087,17.602381 Z" id="Shape" fill="#00A7E6"></path>
            <path d="M9.46956522,32.1714286 L4.66956522,32.1714286 C4.04347826,32.1714286 3.55652174,31.6880952 3.55652174,31.0666667 L3.55652174,16.9119048 C3.55652174,16.2904762 4.04347826,15.8071429 4.66956522,15.8071429 L9.46956522,15.8071429 C10.0956522,15.8071429 10.5826087,16.2904762 10.5826087,16.9119048 L10.5826087,30.997619 C10.5826087,31.6880952 10.0956522,32.1714286 9.46956522,32.1714286 Z" id="Shape" fill="#280074"></path>
        </g>
    </g>
</svg>