<?xml version="1.0" encoding="UTF-8"?>
<svg width="38px" height="39px" viewBox="0 0 38 39" version="1.1" xmlns="http://www.w3.org/2000/svg" xmlns:xlink="http://www.w3.org/1999/xlink">
    <!-- Generator: Sketch 47.1 (45422) - http://www.bohemiancoding.com/sketch -->
    <title>ic_sbi_fund_transfer</title>
    <desc>Created with Sketch.</desc>
    <defs></defs>
    <g id="Page-2" stroke="none" stroke-width="1" fill="none" fill-rule="evenodd">
        <g id="Group-34">
            <path d="M12.0151288,16.8173546 L4.38895008,23.9686055 L4.38895008,23.9686055 C4.18751646,24.1574946 4.17734715,24.4739138 4.3662363,24.6753474 C4.37356234,24.68316 4.38113751,24.6907351 4.38895008,24.6980612 L12.0151288,31.8493121 L12.0151288,31.8493121 C12.2165624,32.0382012 12.5329815,32.0280319 12.7218707,31.8265983 C12.8087768,31.7339206 12.8571429,31.6116348 12.8571429,31.4845843 L12.8571429,27.7222222 L12.8571429,27.7222222 C12.8571429,27.4460798 13.0810005,27.2222222 13.3571429,27.2222222 L22.6904762,27.2222222 L22.6904762,27.2222222 C22.9666186,27.2222222 23.1904762,26.9983646 23.1904762,26.7222222 L23.1904762,21.9444444 L23.1904762,21.9444444 C23.1904762,21.6683021 22.9666186,21.4444444 22.6904762,21.4444444 L13.3571429,21.4444444 L13.3571429,21.4444444 C13.0810005,21.4444444 12.8571429,21.2205868 12.8571429,20.9444444 L12.8571429,17.1820824 L12.8571429,17.1820824 C12.8571429,16.90594 12.6332852,16.6820824 12.3571429,16.6820824 C12.2300923,16.6820824 12.1078065,16.7304484 12.0151288,16.8173546 Z" id="Shape" fill="#280074" fill-rule="nonzero"></path>
            <path d="M26.1428571,8.51541574 L26.1428571,12.2777778 L26.1428571,12.2777778 C26.1428571,12.5539202 25.9189995,12.7777778 25.6428571,12.7777778 L16.3095238,12.7777778 L16.3095238,12.7777778 C16.0333814,12.7777778 15.8095238,13.0016354 15.8095238,13.2777778 L15.8095238,18.0555556 L15.8095238,18.0555556 C15.8095238,18.3316979 16.0333814,18.5555556 16.3095238,18.5555556 L25.6428571,18.5555556 L25.6428571,18.5555556 C25.9189995,18.5555556 26.1428571,18.7794132 26.1428571,19.0555556 L26.1428571,22.8179176 L26.1428571,22.8179176 C26.1428571,23.09406 26.3667148,23.3179176 26.6428571,23.3179176 C26.7699077,23.3179176 26.8921935,23.2695516 26.9848712,23.1826454 L34.6110499,16.0313945 L34.6110499,16.0313945 C34.8124835,15.8425054 34.8226528,15.5260862 34.6337637,15.3246526 C34.6264377,15.31684 34.6188625,15.3092649 34.6110499,15.3019388 L26.9848712,8.1506879 L26.9848712,8.1506879 C26.7834376,7.96179876 26.4670185,7.97196807 26.2781293,8.17340169 C26.1912232,8.26607942 26.1428571,8.3883652 26.1428571,8.51541574 Z" id="Path" fill="#00A7E6"></path>
        </g>
    </g>
</svg>