<?xml version="1.0" encoding="UTF-8"?>
<svg width="38px" height="39px" viewBox="0 0 38 39" version="1.1" xmlns="http://www.w3.org/2000/svg" xmlns:xlink="http://www.w3.org/1999/xlink">
    <!-- Generator: Sketch 47.1 (45422) - http://www.bohemiancoding.com/sketch -->
    <title>ic_sbi_find_atms</title>
    <desc>Created with Sketch.</desc>
    <defs></defs>
    <g id="Page-2" stroke="none" stroke-width="1" fill="none" fill-rule="evenodd">
        <g id="Group-31">
            <g id="Group-32" transform="translate(5.000000, 4.000000)">
                <path d="M13.5,32 C6.04415588,32 0,30.209139 0,28 C0,25.790861 6.04415588,24 13.5,24 C20.9558441,24 27,25.790861 27,28 C27,30.209139 20.9558441,32 13.5,32 Z M13.5,29.3333333 C15.9852814,29.3333333 18,28.7363797 18,28 C18,27.2636203 15.9852814,26.6666667 13.5,26.6666667 C11.0147186,26.6666667 9,27.2636203 9,28 C9,28.7363797 11.0147186,29.3333333 13.5,29.3333333 Z" id="Combined-Shape" fill="#280074"></path>
                <path d="M14,0 C8.23963361,0 3.41940555,4.46244053 3.01556606,10.1606338 C2.87396043,12.7755073 3.70213908,15.3534858 5.35137363,17.4316033 L13.2246282,27.623443 C13.4075562,27.8604039 13.6955986,28 14.0016154,28 C14.3076321,28 14.5956745,27.8604039 14.7786025,27.623443 L22.6486264,17.4316033 C24.2978609,15.3534858 25.1260396,12.7755073 24.9844339,10.1606338 C24.5805945,4.46244053 19.7603664,0 14,0 Z M14,14.701089 C12.1032501,14.7099337 10.3881691,13.6131143 9.65596065,11.9230123 C8.92375223,10.2329103 9.31894,8.28311872 10.6569112,6.98448684 C11.9948823,5.68585495 14.0115476,5.29470723 15.7648175,5.99376917 C17.5180874,6.69283111 18.6619009,8.3441216 18.661923,10.1762368 C18.6655017,12.6681513 16.5798434,14.6924867 14,14.701089 L14,14.701089 Z" id="Shape" fill="#00A7E6" fill-rule="nonzero"></path>
            </g>
        </g>
    </g>
</svg>