<?xml version="1.0" encoding="UTF-8"?>
<svg width="38px" height="39px" viewBox="0 0 38 39" version="1.1" xmlns="http://www.w3.org/2000/svg" xmlns:xlink="http://www.w3.org/1999/xlink">
    <!-- Generator: Sketch 47.1 (45422) - http://www.bohemiancoding.com/sketch -->
    <title>ic-sbi-deposits</title>
    <desc>Created with Sketch.</desc>
    <defs></defs>
    <g id="Page-2" stroke="none" stroke-width="1" fill="none" fill-rule="evenodd">
        <g id="Group-25">
            <path d="M11.4891429,13 C16.7222857,13 21,17.2391304 21,22.5 C21,27.7173913 16.7222857,32 11.4891429,32 C6.256,32 2,27.7173913 2,22.5 C2,17.2391304 6.256,13 11.4891429,13 Z M14.5653556,19.7476808 L14.9476165,18.3973013 L7.88703257,18.3973013 L7.48228571,19.9026423 L9.49852466,19.9026423 C10.577855,19.9026423 11.2399343,20.2838932 11.4847824,21.0464063 L7.86454663,21.0464063 L7.48228571,22.3894066 L11.5147636,22.3894066 C11.4048318,22.763284 11.1862207,23.0645952 10.8589238,23.2933491 C10.5316269,23.5221031 10.0881587,23.6364783 9.5285059,23.6364783 L7.63219196,23.6364783 L7.63968727,24.7654841 L11.4548011,29.1413037 L13.6059557,29.1413037 L13.6059557,29.0453751 L10.1131402,25.0237534 C11.1175171,24.9401229 11.8945233,24.683086 12.4441823,24.2526351 C12.9938413,23.8221841 13.3236317,23.2011142 13.4335635,22.3894066 L14.5653556,22.3894066 L14.9401212,21.0464063 L13.4260682,21.0464063 C13.3511147,20.5495429 13.1862195,20.1166387 12.9313776,19.7476808 L14.5653556,19.7476808 Z" id="Combined-Shape" fill="#00A7E6"></path>
            <g id="Group-26" transform="translate(18.000000, 6.000000)" fill-rule="nonzero" fill="#280074">
                <path d="M9.08105066,15.1016667 C14.5350844,15.1016667 18,17.2466667 18,20.54 C18,23.7466667 14.7489681,26 9.08105066,26 C3.41313321,26 0.162101313,23.7466667 0.162101313,20.54 C0.162101313,17.2466667 3.62701689,15.1016667 9.08105066,15.1016667 Z M18,13.52 L18,16.315 C15.732833,12.935 8.6532833,12.0683333 3.92645403,13.715 C4.26866792,12.7616667 4.50393996,11.765 4.58949343,10.7033333 C9.29493433,9.36 15.8397749,10.2916667 18,13.52 Z M18,8.47166667 L18,11.245 C15.8183865,8.01666667 9.27354597,7.085 4.56810507,8.45 C4.46116323,7.54 4.24727955,6.67333333 3.96923077,5.85 C8.69606004,4.225 15.732833,5.09166667 18,8.47166667 Z M9.08105066,0 C12.7812383,0 16.4814259,1.12666667 18,3.40166667 L18,6.19666667 C15.5831144,2.6 7.73358349,1.84166667 3.04953096,3.94333333 C2.64315197,3.22833333 2.15121951,2.57833333 1.59512195,1.97166667 C3.43452158,0.65 6.25778612,0 9.08105066,0 Z" id="Shape" transform="translate(9.081051, 13.000000) scale(-1, 1) rotate(-180.000000) translate(-9.081051, -13.000000) "></path>
            </g>
        </g>
    </g>
</svg>