<?xml version="1.0" encoding="UTF-8"?>
<svg width="38px" height="39px" viewBox="0 0 38 39" version="1.1" xmlns="http://www.w3.org/2000/svg" xmlns:xlink="http://www.w3.org/1999/xlink">
    <!-- Generator: Sketch 47.1 (45422) - http://www.bohemiancoding.com/sketch -->
    <title>ic-sbi-registrations</title>
    <desc>Created with Sketch.</desc>
    <defs></defs>
    <g id="Page-2" stroke="none" stroke-width="1" fill="none" fill-rule="evenodd">
        <g id="Group-28">
            <path d="M6,9.36957563 L6,32.9742394 L6,32.9742394 C6,34.6310936 7.34314575,35.9742394 9,35.9742394 L27.1428571,35.9742394 L27.1428571,35.9742394 C28.7997114,35.9742394 30.1428571,34.6310936 30.1428571,32.9742394 L30.1428571,11.6969739 L19.4553571,22.1359242 C19.2477127,22.3398628 18.9746949,22.4680104 18.6819357,22.4989487 L14.59375,22.94043 C14.2048905,22.9817258 13.8179296,22.8478913 13.5423246,22.5767834 C13.2667196,22.3056755 13.132441,21.9267759 13.1774714,21.5472614 L13.6294643,17.5541812 C13.6633344,17.2717041 13.7943594,17.008819 14.0011,16.8085417 L24.6785714,6.36957563 L9,6.36957563 L9,6.36957563 C7.34314575,6.36957563 6,7.71272138 6,9.36957563 Z" id="Shape" fill="#280074" fill-rule="nonzero"></path>
            <path d="M29.6650998,3.28462411 L14.90515,17.7013312 L14.5935827,20.4536633 L14.5935827,20.4536633 C14.5314602,21.0024431 14.9259738,21.4976772 15.4747536,21.5597998 C15.5477956,21.5680682 15.6215266,21.5682577 15.6946101,21.5603648 L18.5412786,21.25293 L33.2675902,6.86910878 L33.2675902,6.86910878 C33.6626817,6.48320584 33.6701306,5.85008468 33.2842277,5.45499308 C33.2787474,5.44938233 33.2732013,5.44383625 33.2675906,5.43835598 L31.0625791,3.28462382 L31.0625791,3.28462382 C30.6740449,2.90512528 30.0536338,2.90512541 29.6650998,3.28462411 Z" id="Path" fill="#00A7E6"></path>
        </g>
    </g>
</svg>