<?xml version="1.0" encoding="UTF-8"?>
<svg width="38px" height="39px" viewBox="0 0 38 39" version="1.1" xmlns="http://www.w3.org/2000/svg" xmlns:xlink="http://www.w3.org/1999/xlink">
    <!-- Generator: Sketch 47.1 (45422) - http://www.bohemiancoding.com/sketch -->
    <title>ic-sbi-sss</title>
    <desc>Created with Sketch.</desc>
    <defs></defs>
    <g id="Page-2" stroke="none" stroke-width="1" fill="none" fill-rule="evenodd">
        <g id="noun_432286">
            <g id="Group-29" transform="translate(4.000000, 2.000000)">
                <path d="M29.2504126,9.3 C28.2848995,9.3 27.5011662,10.0869308 27.5011662,11.0579129 L27.5011662,17.9127106 C27.5011662,17.9456136 27.5209471,17.9737183 27.5485721,17.9863996 C28.5028306,18.3952883 29.1631037,19.3295972 29.1631037,20.4177964 C29.1631037,21.4048872 28.6218571,22.2997811 27.7497918,22.7563106 L23.4866645,25.0879701 C23.2748723,25.2038161 23.0095353,25.124986 22.8946013,24.9118018 C22.7783032,24.6982748 22.8570858,24.4312804 23.068878,24.3157771 L27.3395084,21.9800048 C27.9029233,21.6876477 28.28831,21.0988205 28.28831,20.4177964 C28.28831,19.4468143 27.5052588,18.6602263 26.5394047,18.6602263 C26.2263206,18.6602263 25.9336995,18.7438548 25.6796171,18.888491 L19.0079935,22.531816 C17.5312462,23.3636457 16.5333333,24.9515596 16.5333333,26.7739075 L16.5333333,34.922891 C16.5333333,35.0394226 16.6271221,35.1333333 16.7430792,35.1333333 L22.4754507,35.1333333 C22.5914077,35.1333333 22.6848555,35.0394226 22.6848555,34.922891 L22.6848555,32.2107903 C22.6848555,31.4948067 23.157551,30.5810622 23.7407469,30.1701171 L30.2012605,25.3501661 C30.6845286,25.0039988 31,24.4357361 31,23.7934415 L31,11.0579129 C31,10.0869308 30.2166077,9.3 29.2504126,9.3 Z" id="Shape" fill="#280074" fill-rule="nonzero"></path>
                <path d="M14.5606061,20.6666667 C9.29389393,20.1910884 5.16666667,15.7557309 5.16666667,10.354439 C5.16666667,4.63584024 9.79305759,0 15.5,0 C21.2069424,0 25.8333333,4.63584024 25.8333333,10.354439 C25.8333333,15.6841606 21.8147579,20.0733765 16.6481481,20.6456828 L16.6481481,13.4392096 C17.7805999,12.9914176 18.5818713,11.8850451 18.5818713,10.5911433 C18.5818713,8.90079729 17.2143682,7.53050108 15.5274677,7.53050108 C13.8405671,7.53050108 12.473064,8.90079729 12.473064,10.5911433 C12.473064,11.9428876 13.3475768,13.0899613 14.5606061,13.4952733 L14.5606061,20.6666667 Z" id="Combined-Shape" fill="#00A7E6"></path>
                <path d="M1.74928763,9.3 C2.71550558,9.3 3.49857526,10.0869308 3.49857526,11.0579129 L3.49857526,17.9127106 C3.49857526,17.9456136 3.47913494,17.9737183 3.45150922,17.9863996 C3.44775758,17.9877706 3.43718478,17.992569 3.43582054,17.9929117 C2.49722831,18.3952883 1.83693959,19.3295972 1.83693959,20.4177964 C1.83693959,21.4048872 2.37819899,22.2997811 3.25028487,22.7563106 L7.51351266,25.0879701 C7.72530982,25.2038161 7.99031206,25.124986 8.10558974,24.9118018 C8.22154954,24.6982748 8.14310614,24.4312804 7.93130899,24.3157771 L3.66057791,21.9800048 C3.09714973,21.6876477 2.71141288,21.0988205 2.71141288,20.4177964 C2.71141288,19.4468143 3.49448256,18.6602263 4.46070051,18.6602263 C4.7734509,18.6602263 5.06641991,18.7438548 5.32050829,18.888491 L11.9919482,22.531816 C13.4687303,23.3636457 14.4666667,24.9515596 14.4666667,26.7739075 L14.4666667,34.922891 C14.4666667,35.0394226 14.3728757,35.1333333 14.2569159,35.1333333 L8.52440924,35.1333333 C8.4087905,35.1333333 8.31465843,35.0394226 8.31465843,34.922891 L8.31465843,32.2107903 C8.31465843,31.4948067 7.84229279,30.5810622 7.25908323,30.1701171 L0.798076243,25.3505088 C0.315137799,25.0039988 0,24.4357361 0,23.7934415 L0,11.0579129 C0,10.0869308 0.783069681,9.3 1.74928763,9.3 Z" id="Shape" fill="#280074" fill-rule="nonzero"></path>
            </g>
        </g>
    </g>
</svg>