<?xml version="1.0" encoding="UTF-8"?>
<svg width="38px" height="39px" viewBox="0 0 38 39" version="1.1" xmlns="http://www.w3.org/2000/svg" xmlns:xlink="http://www.w3.org/1999/xlink">
    <!-- Generator: Sketch 47.1 (45422) - http://www.bohemiancoding.com/sketch -->
    <title>ic-sbi-accounts</title>
    <desc>Created with Sketch.</desc>
    <defs></defs>
    <g id="Page-2" stroke="none" stroke-width="1" fill="none" fill-rule="evenodd">
        <g id="accounts" fill-rule="nonzero">
            <path d="M19,20 C22.8465347,20 26,16.8811881 26,13 C26,9.11881188 22.8811881,6 19,6 C15.1188119,6 12,9.11881188 12,13 C12,16.8811881 15.1534653,20 19,20 Z" id="Shape" fill="#00A7E6"></path>
            <path d="M24.5297226,20 C24.4557464,20 24.4187583,20 24.3817701,20 C24.2708058,20 24.2338177,20 24.1968296,20 C24.0858653,20 24.0488771,20.0379009 24.011889,20.0379009 C23.9009247,20.0758017 23.8639366,20.1137026 23.7899604,20.1516035 C22.3844122,21.1749271 20.7569353,21.7055394 19.0184941,21.7055394 C17.2800528,21.7055394 15.652576,21.1749271 14.2470277,20.1516035 C14.2100396,20.1137026 14.1360634,20.0758017 14.0620872,20.0379009 C13.988111,20.0379009 13.9511229,20 13.8771466,20 C13.7661823,20 13.7291942,20 13.6922061,20 C13.5812417,20 13.5442536,20 13.5072655,20 C8.47688243,21.1749271 5,25.6472303 5,30.9154519 L5,32.0524781 C5,32.5830904 5.40686922,33 5.92470277,33 L32.0752972,33 C32.5931308,33 33,32.5830904 33,32.0524781 L33,30.9154519 C33,25.6851312 29.5231176,21.1749271 24.5297226,20 Z" id="Shape" fill="#280074"></path>
        </g>
    </g>
</svg>