<?xml version="1.0" encoding="UTF-8"?>
<svg width="38px" height="39px" viewBox="0 0 38 39" version="1.1" xmlns="http://www.w3.org/2000/svg" xmlns:xlink="http://www.w3.org/1999/xlink">
    <!-- Generator: Sketch 47.1 (45422) - http://www.bohemiancoding.com/sketch -->
    <title>ic-sbi-loans</title>
    <desc>Created with Sketch.</desc>
    <defs></defs>
    <g id="Page-2" stroke="none" stroke-width="1" fill="none" fill-rule="evenodd">
        <g id="Group-27">
            <path d="M14.4914286,5 C18.6228571,5 22,8.34668192 22,12.5 C22,16.6189931 18.6228571,20 14.4914286,20 C10.36,20 7,16.6189931 7,12.5 C7,8.34668192 10.36,5 14.4914286,5 Z M16.9200176,10.3271164 L17.2218025,9.26102738 L11.6476573,9.26102738 L11.3281203,10.4494545 L12.9198879,10.4494545 C13.7719908,10.4494545 14.2946849,10.750442 14.4879861,11.352426 L11.6299052,11.352426 L11.3281203,12.4126894 L14.5116555,12.4126894 C14.4248672,12.7078558 14.2522795,12.945733 13.9938872,13.1263283 C13.7354949,13.3069235 13.3853884,13.3972197 12.9435573,13.3972197 L11.4464673,13.3972197 L11.4523847,14.2885401 L14.4643167,17.7431345 L16.1625966,17.7431345 L16.1625966,17.6674014 L13.4051107,14.4924369 C14.1980398,14.4264128 14.8114658,14.223489 15.2454071,13.8836593 C15.6793484,13.5438295 15.9397092,13.0535112 16.0264975,12.4126894 L16.9200176,12.4126894 L17.2158852,11.352426 L16.0205801,11.352426 C15.9614063,10.9601655 15.8312259,10.618399 15.6300349,10.3271164 L16.9200176,10.3271164 Z" id="Combined-Shape" fill="#00A7E6"></path>
            <path d="M28,29.7647239 L26.9457004,29.7647239 L18.2226267,32.6865024 C17.9527762,32.8329096 16.8545475,33.329421 15.7061141,32.6546747 L15.6935629,32.6483092 L3.73855896,25.9072124 C3.69462982,25.8817502 3.65697626,25.8499226 3.6255983,25.8180949 L3.6255983,25.8180949 C3.6255983,25.8117294 2.55874755,24.7232237 3.21140919,23.4883107 L3.21140919,23.4883107 C3.21140919,23.4819452 3.92682674,21.9414868 5.30745712,22.3297842 C8.77785983,23.3037104 11.0182464,25.3279491 13.0829164,25.8499226 C15.7751456,26.3400684 17.6578234,26.1681991 20.1931628,25.0796934 C19.4275405,25.003307 18.1975243,25.0733279 16.9424058,25.1306176 C16.5595947,25.1497142 16.1705079,25.1624453 15.7876968,25.1751763 C11.9721365,25.2770248 11.7964199,24.0102842 12.6059713,23.0872823 C13.3904204,22.196108 14.0681844,22.1770114 15.0660036,22.1770114 L18.8878395,22.1770114 C19.496572,21.8969281 22.6280927,20.4837803 24.3162271,20.1782349 C24.3225027,20.1782349 24.3287783,20.1782349 24.3350539,20.1782349 C25.088125,20.0445587 26.0231883,20 26.8703933,20 C27.2783068,20 27.6673936,20.0063655 28,20.0190966 L28,29.7774549 L28,29.7647239 Z" id="Shape" fill="#280074" fill-rule="nonzero"></path>
            <path d="M30.1876777,18.0125 L34.8123223,18.0125 C35.1374408,18.0125 35.4293839,18.1375 35.6483412,18.3375 L35.6483412,18.3375 L35.6483412,18.3375 L35.6483412,18.3375 L35.6483412,18.3375 C35.8606635,18.54375 36,18.81875 36,19.125 L36,30.88125 C36,31.1875 35.8672986,31.4625 35.6549763,31.66875 L35.6549763,31.66875 L35.6549763,31.66875 L35.6549763,31.66875 L35.6549763,31.66875 C35.436019,31.86875 35.1440758,32 34.8189573,32 L30.1943128,32 C29.8890995,32 29.6037915,31.8875 29.3914692,31.70625 C29.3781991,31.69375 29.3649289,31.68125 29.3516588,31.675 C29.1393365,31.475 29,31.19375 29,30.88125 L29,19.125 C29,18.81875 29.1327014,18.5375 29.3516588,18.33125 L29.3516588,18.33125 C29.5706161,18.125 29.8625592,18 30.1876777,18 L30.1876777,18.0125 Z" id="Shape" fill="#280074" fill-rule="nonzero"></path>
        </g>
    </g>
</svg>